<svg width="730" height="730" viewBox="0 0 730 730" fill="none" xmlns="http://www.w3.org/2000/svg">
<circle cx="365" cy="365" r="303" fill="#21B5F4"/>
<path d="M225.406 267.25L278 415.75L330.312 267.25H385.719V472H343.391V416.031L347.609 319.422L292.344 472H263.375L208.25 319.562L212.469 416.031V472H170.281V267.25H225.406ZM422.562 472V267.25H494.281C519.125 267.25 537.969 272.031 550.812 281.594C563.656 291.062 570.078 304.984 570.078 323.359C570.078 333.391 567.5 342.25 562.344 349.938C557.188 357.531 550.016 363.109 540.828 366.672C551.328 369.297 559.578 374.594 565.578 382.562C571.672 390.531 574.719 400.281 574.719 411.812C574.719 431.5 568.438 446.406 555.875 456.531C543.312 466.656 525.406 471.812 502.156 472H422.562ZM464.75 382.844V438.109H500.891C510.828 438.109 518.562 435.766 524.094 431.078C529.719 426.297 532.531 419.734 532.531 411.391C532.531 392.641 522.828 383.125 503.422 382.844H464.75ZM464.75 353.031H495.969C517.25 352.656 527.891 344.172 527.891 327.578C527.891 318.297 525.172 311.641 519.734 307.609C514.391 303.484 505.906 301.422 494.281 301.422H464.75V353.031Z" fill="white"/>
</svg>
